<?xml version="1.0" encoding="utf-8"?>
<!-- Generator: Adobe Illustrator 25.0.1, SVG Export Plug-In . SVG Version: 6.00 Build 0)  -->
<svg version="1.1" id="Слой_1" xmlns="http://www.w3.org/2000/svg" xmlns:xlink="http://www.w3.org/1999/xlink" x="0px" y="0px"
	 viewBox="0 0 18 19" style="enable-background:new 0 0 18 19;" xml:space="preserve">
<style type="text/css">
	.st0{fill:#415ADA;}
	.st1{fill:#FFFFFF;}
</style>
<path class="st0" d="M4,0.5h10c2.2,0,4,1.8,4,4v10c0,2.2-1.8,4-4,4H4c-2.2,0-4-1.8-4-4v-10C0,2.3,1.8,0.5,4,0.5z"/>
<path class="st1" d="M7.8,13.2c-0.1,0.1-0.2,0.1-0.4,0.1c-0.1,0-0.3-0.1-0.4-0.1l-2.9-2.9c-0.3-0.3-0.3-0.8,0-1.1l0.4-0.4
	c0.3-0.3,0.8-0.3,1.1,0l1.8,1.8l4.9-4.9c0.3-0.3,0.8-0.3,1.1,0l0.4,0.4c0.3,0.3,0.3,0.8,0,1.1L7.8,13.2z"/>
</svg>
